<svg width="21" height="20" viewBox="0 0 21 20" fill="none" xmlns="http://www.w3.org/2000/svg">
<path d="M2.9 19.5H18.1C19.1493 19.5 20 18.6493 20 17.6V2.4C20 1.35072 19.1493 0.5 18.1 0.5H2.9C1.85072 0.5 1 1.35072 1 2.4V17.6C1 18.6493 1.85072 19.5 2.9 19.5Z" stroke="#424242" stroke-miterlimit="10" stroke-linecap="round" stroke-linejoin="round"/>
<path d="M3.8501 7.625H6.7001V13.8641V16.65H3.8501V7.625Z" stroke="#424242" stroke-miterlimit="10" stroke-linecap="round" stroke-linejoin="round"/>
<path d="M5.2751 6.19995C4.4201 6.19995 3.8501 5.66178 3.8501 4.99678C3.8501 4.33178 4.4201 3.82495 5.2751 3.82495C6.1301 3.82495 6.66447 4.33178 6.7001 4.99678C6.7001 5.66178 6.16572 6.19995 5.2751 6.19995Z" stroke="#424242" stroke-miterlimit="10" stroke-linecap="round" stroke-linejoin="round"/>
<path d="M17.15 16.65H14.3C14.3 16.65 14.3 12.2529 14.3 11.9C14.3 10.95 13.825 10 12.6375 9.97958C11.4604 9.95868 10.975 10.95 10.975 11.9C10.975 12.3318 10.975 16.65 10.975 16.65H8.125V7.625H10.975V8.84148C10.975 8.84148 11.8917 7.625 13.7362 7.625C15.6195 7.625 17.15 8.91985 17.15 11.549V16.65Z" stroke="#424242" stroke-miterlimit="10" stroke-linecap="round" stroke-linejoin="round"/>
</svg>
