<svg width="20" height="21" viewBox="0 0 20 21" fill="none" xmlns="http://www.w3.org/2000/svg">
<path d="M10 0.5C4.4775 0.5 0 4.9775 0 10.5C0 15.1858 3.22667 19.1067 7.57667 20.1917C7.53 20.0567 7.5 19.9 7.5 19.7058V17.9967C7.09417 17.9967 6.41417 17.9967 6.24333 17.9967C5.55917 17.9967 4.95083 17.7025 4.65583 17.1558C4.32833 16.5483 4.27167 15.6192 3.46 15.0508C3.21917 14.8617 3.4025 14.6458 3.68 14.675C4.1925 14.82 4.6175 15.1717 5.0175 15.6933C5.41583 16.2158 5.60333 16.3342 6.3475 16.3342C6.70833 16.3342 7.24833 16.3133 7.75667 16.2333C8.03 15.5392 8.5025 14.9 9.08 14.5983C5.75 14.2558 4.16083 12.5992 4.16083 10.35C4.16083 9.38167 4.57333 8.445 5.27417 7.65583C5.04417 6.8725 4.755 5.275 5.3625 4.66667C6.86083 4.66667 7.76667 5.63833 7.98417 5.90083C8.73083 5.645 9.55083 5.5 10.4125 5.5C11.2758 5.5 12.0992 5.645 12.8475 5.9025C13.0625 5.64167 13.9692 4.66667 15.4708 4.66667C16.0808 5.27583 15.7883 6.88 15.5558 7.66167C16.2525 8.44917 16.6625 9.38333 16.6625 10.35C16.6625 12.5975 15.0758 14.2533 11.7508 14.5975C12.6658 15.075 13.3333 16.4167 13.3333 17.4275V19.7058C13.3333 19.7925 13.3142 19.855 13.3042 19.9292C17.2008 18.5633 20 14.8633 20 10.5C20 4.9775 15.5225 0.5 10 0.5Z" fill="#424242"/>
</svg>
