<svg width="20" height="20" viewBox="0 0 20 20" fill="none" xmlns="http://www.w3.org/2000/svg">
<path d="M2.38 0C1.7496 0.0026322 1.14576 0.254227 0.699994 0.699994C0.254227 1.14576 0.0026322 1.7496 0 2.38L0 17.62C0.0026322 18.2504 0.254227 18.8542 0.699994 19.3C1.14576 19.7458 1.7496 19.9974 2.38 20H17.62C18.2504 19.9974 18.8542 19.7458 19.3 19.3C19.7458 18.8542 19.9974 18.2504 20 17.62V2.38C19.9974 1.7496 19.7458 1.14576 19.3 0.699994C18.8542 0.254227 18.2504 0.0026322 17.62 0L2.38 0ZM2.38 1H17.62C17.9993 1 18.363 1.15066 18.6312 1.41884C18.8993 1.68701 19.05 2.05074 19.05 2.43V17.62C19.05 17.9993 18.8993 18.363 18.6312 18.6312C18.363 18.8993 17.9993 19.05 17.62 19.05H2.38C2.00947 19.037 1.65846 18.8807 1.40101 18.6139C1.14355 18.3471 0.999773 17.9908 1 17.62V2.38C1.01245 2.01796 1.16184 1.67414 1.41799 1.41799C1.67414 1.16184 2.01796 1.01245 2.38 1V1Z" fill="#424242"/>
<path d="M16.3001 3.5C16.1449 3.51046 15.9926 3.54768 15.8501 3.61L13.7501 4.5L9.56011 6.3L3.56011 8.86C3.44901 8.89582 3.34181 8.94272 3.24011 9C3.13988 9.082 3.0581 9.18422 3.00011 9.3C2.90695 9.43807 2.86454 9.60417 2.88011 9.77C2.91212 9.95937 2.99798 10.1355 3.12743 10.2774C3.25689 10.4192 3.42445 10.5208 3.61011 10.57L6.50011 11.57C6.57011 11.82 7.38011 14.5 7.56011 15.07C7.61341 15.2925 7.70842 15.5029 7.84011 15.69C7.88225 15.7444 7.9329 15.7917 7.99011 15.83C8.01282 15.8376 8.0374 15.8376 8.06011 15.83H8.11011C8.2108 15.8627 8.31789 15.8706 8.42231 15.8532C8.52674 15.8358 8.62545 15.7936 8.71011 15.73V15.73L10.4801 14.08L13.3701 16.33C13.5641 16.4251 13.7804 16.4651 13.9955 16.4457C14.2106 16.4263 14.4163 16.3482 14.5901 16.22C14.7592 16.1158 14.9 15.9715 15.0001 15.8L17.1201 4.8C17.1698 4.5828 17.1698 4.3572 17.1201 4.14C17.0702 3.95401 16.9525 3.79346 16.7901 3.69C16.6466 3.58411 16.4775 3.51851 16.3001 3.5V3.5ZM16.3001 4.16H16.4301C16.4301 4.16 16.4301 4.16 16.4301 4.22C16.4585 4.33494 16.4585 4.45506 16.4301 4.57L14.3301 15.57C14.294 15.646 14.243 15.714 14.1801 15.77C14.0701 15.85 13.9601 15.92 13.6601 15.77L10.5101 13.31L10.4201 13.24L9.48011 12.53L14.7801 6.3C14.84 6.23841 14.8735 6.15589 14.8735 6.07C14.8735 5.98411 14.84 5.9016 14.7801 5.84C14.7174 5.79023 14.6402 5.76215 14.5601 5.76C14.495 5.75844 14.4313 5.77966 14.3801 5.82L6.70011 11L3.81011 10C3.81011 10 3.52011 9.84 3.51011 9.73C3.50011 9.62 3.51011 9.73 3.51011 9.73C3.5362 9.69282 3.57039 9.66204 3.61011 9.64C3.67313 9.59984 3.74016 9.56632 3.81011 9.54V9.54L9.81011 6.98L14.0001 5.1L16.0801 4.21C16.1579 4.18411 16.2384 4.16733 16.3201 4.16H16.3001ZM12.8001 7.67L8.80011 12.39C8.77515 12.426 8.7581 12.4669 8.75011 12.51V12.51L8.23011 14.87V14.8C8.06011 14.27 7.30011 11.74 7.23011 11.39L12.8001 7.67ZM9.24011 13.17L9.96011 13.71L8.90011 14.71L9.24011 13.17Z" fill="#424242" stroke="#424242" stroke-width="0.5" stroke-linecap="round" stroke-linejoin="round"/>
</svg>
