<svg width="22" height="21" viewBox="0 0 22 21" fill="none" xmlns="http://www.w3.org/2000/svg">
<path d="M3.3199 20.2H18.6799C19.7402 20.2 20.5999 19.3403 20.5999 18.28V2.92C20.5999 1.85968 19.7402 1 18.6799 1H3.3199C2.25958 1 1.3999 1.85968 1.3999 2.92V18.28C1.3999 19.3403 2.25958 20.2 3.3199 20.2Z" stroke="#424242" stroke-miterlimit="10" stroke-linecap="round" stroke-linejoin="round"/>
<path d="M16.2676 12.0952C17.3413 13.095 17.564 13.5813 17.6005 13.6418C18.0455 14.3819 17.1071 14.44 17.1071 14.44L15.3143 14.4328C15.3143 14.4328 14.9284 14.5086 14.4215 14.1597C13.7509 13.6989 13.1192 12.5003 12.6263 12.6554C12.2125 12.785 12.0892 13.1978 12.0892 13.6994C12.0892 13.8794 11.9634 13.9595 11.6308 13.9595C11.2981 13.9595 10.976 13.9595 10.8282 13.9595C9.74532 13.9595 8.7066 13.985 7.53396 12.7005C5.87556 10.8837 4.31604 7.64656 4.31604 7.64656C4.31604 7.64656 4.23012 7.46224 4.32372 7.3504C4.4298 7.22464 4.7178 7.24048 4.7178 7.24048L6.63588 7.24C6.63588 7.24 6.81636 7.276 6.94596 7.37152C7.053 7.44976 7.11252 7.6 7.11252 7.6C7.11252 7.6 7.43844 8.23552 7.84884 8.94688C8.65044 10.3355 9.02292 10.6398 9.29508 10.4906C9.69204 10.2741 9.573 8.52832 9.573 8.52832C9.573 8.52832 9.58068 7.89424 9.37332 7.61248C9.21348 7.3936 8.91156 7.32976 8.77812 7.312C8.67012 7.2976 8.84676 7.04656 9.07668 6.93328C9.4218 6.76384 10.0314 6.75472 10.7519 6.76192C11.3125 6.76768 11.3284 6.8272 11.5472 6.88C12.2087 7.03984 11.984 7.65856 11.984 9.14176C11.984 9.61696 11.8986 10.2851 12.2404 10.5064C12.3877 10.6019 12.8932 10.4958 13.7917 8.9656C14.2184 8.23984 14.5439 7.51552 14.5439 7.51552C14.5439 7.51552 14.614 7.38304 14.7224 7.31776C14.8338 7.25104 14.83 7.25248 14.9831 7.25248C15.1362 7.25248 16.666 7.24 17.002 7.24C17.3375 7.24 17.6519 7.23616 17.7066 7.44208C17.7844 7.73824 17.4728 8.2744 16.6487 9.37648C15.2936 11.1861 15.1434 11.0493 16.2676 12.0952Z" stroke="#424242" stroke-miterlimit="10" stroke-linecap="round" stroke-linejoin="round"/>
</svg>
